<svg viewBox="0 0 500 500" xmlns="http://www.w3.org/2000/svg" xmlns:bx="https://boxy-svg.com">
  <defs>
    <symbol id="big_grid" viewBox="0 0 120 120" bx:pinned="true">
      <g>
        <g>
          <line style="stroke: rgb(0, 0, 0); stroke-width: 2px; stroke-linecap: round;" x1="1" y1="1" x2="1" y2="119"></line>
          <line style="stroke: rgb(0, 0, 0); stroke-width: 2px; stroke-linecap: round;" x1="20.667" y1="1" x2="20.667" y2="119"></line>
          <line style="stroke: rgb(0, 0, 0); stroke-width: 2px; stroke-linecap: round;" x1="40.334" y1="1" x2="40.334" y2="119"></line>
          <line style="stroke: rgb(0, 0, 0); stroke-width: 2px; stroke-linecap: round;" x1="60.001" y1="1" x2="60.001" y2="119"></line>
          <line style="stroke: rgb(0, 0, 0); stroke-width: 2px; stroke-linecap: round;" x1="79.668" y1="1" x2="79.668" y2="119"></line>
          <line style="stroke: rgb(0, 0, 0); stroke-width: 2px; stroke-linecap: round;" x1="99.335" y1="1" x2="99.335" y2="119"></line>
          <line style="stroke: rgb(0, 0, 0); stroke-width: 2px; stroke-linecap: round;" x1="119" y1="1" x2="119" y2="119"></line>
        </g>
        <g>
          <line style="stroke: rgb(0, 0, 0); stroke-width: 2px; stroke-linecap: round;" x1="1" y1="1" x2="119" y2="1"></line>
          <line style="stroke: rgb(0, 0, 0); stroke-width: 2px; stroke-linecap: round;" x1="1" y1="20.667" x2="119" y2="20.667"></line>
          <line style="stroke: rgb(0, 0, 0); stroke-width: 2px; stroke-linecap: round;" x1="1" y1="40.334" x2="119" y2="40.334"></line>
          <line style="stroke: rgb(0, 0, 0); stroke-width: 2px; stroke-linecap: round;" x1="1" y1="60.001" x2="119" y2="60.001"></line>
          <line style="stroke: rgb(0, 0, 0); stroke-width: 2px; stroke-linecap: round;" x1="1" y1="79.668" x2="119" y2="79.668"></line>
          <line style="stroke: rgb(0, 0, 0); stroke-width: 2px; stroke-linecap: round;" x1="1" y1="99.335" x2="119" y2="99.335"></line>
          <line style="stroke: rgb(0, 0, 0); stroke-width: 2px; stroke-linecap: round;" x1="1" y1="119" x2="119" y2="119"></line>
        </g>
      </g>
    </symbol>
    <symbol id="grid" viewBox="0 0 80 80" bx:pinned="true">
      <g>
        <g>
          <line style="stroke: rgb(0, 0, 0); stroke-width: 2px; stroke-linecap: round;" x1="1" y1="1" x2="1" y2="79"></line>
          <line style="stroke: rgb(0, 0, 0); stroke-width: 2px; stroke-linecap: round;" x1="20.5" y1="1" x2="20.5" y2="79"></line>
          <line style="stroke: rgb(0, 0, 0); stroke-width: 2px; stroke-linecap: round;" x1="40" y1="1" x2="40" y2="79"></line>
          <line style="stroke: rgb(0, 0, 0); stroke-width: 2px; stroke-linecap: round;" x1="59.5" y1="1" x2="59.5" y2="79"></line>
          <line style="stroke: rgb(0, 0, 0); stroke-width: 2px; stroke-linecap: round;" x1="79" y1="1" x2="79" y2="79"></line>
        </g>
        <g>
          <line style="stroke: rgb(0, 0, 0); stroke-width: 2px; stroke-linecap: round;" x1="1" y1="1" x2="79" y2="1"></line>
          <line style="stroke: rgb(0, 0, 0); stroke-width: 2px; stroke-linecap: round;" x1="1" y1="20.5" x2="79" y2="20.5"></line>
          <line style="stroke: rgb(0, 0, 0); stroke-width: 2px; stroke-linecap: round;" x1="1" y1="40" x2="79" y2="40"></line>
          <line style="stroke: rgb(0, 0, 0); stroke-width: 2px; stroke-linecap: round;" x1="1" y1="59.5" x2="79" y2="59.5"></line>
          <line style="stroke: rgb(0, 0, 0); stroke-width: 2px; stroke-linecap: round;" x1="1" y1="79" x2="79" y2="79"></line>
        </g>
      </g>
    </symbol>
    <symbol id="little_grid" viewBox="0 0 40 40" bx:pinned="true">
      <g>
        <g>
          <line style="stroke: rgb(0, 0, 0); stroke-width: 2px; stroke-linecap: round;" x1="1" y1="1" x2="1" y2="39"></line>
          <line style="stroke: rgb(0, 0, 0); stroke-width: 2px; stroke-linecap: round;" x1="20" y1="1" x2="20" y2="39"></line>
          <line style="stroke: rgb(0, 0, 0); stroke-width: 2px; stroke-linecap: round;" x1="39" y1="1" x2="39" y2="39"></line>
        </g>
        <g>
          <line style="stroke: rgb(0, 0, 0); stroke-width: 2px; stroke-linecap: round;" x1="1" y1="1" x2="39" y2="1"></line>
          <line style="stroke: rgb(0, 0, 0); stroke-width: 2px; stroke-linecap: round;" x1="1" y1="20" x2="39" y2="20"></line>
          <line style="stroke: rgb(0, 0, 0); stroke-width: 2px; stroke-linecap: round;" x1="1" y1="39" x2="39" y2="39"></line>
        </g>
      </g>
    </symbol>
  </defs>
</svg>