<?xml version="1.0" encoding="utf-8"?>
<svg viewBox="0 0 700 500" xmlns="http://www.w3.org/2000/svg" xmlns:xlink="http://www.w3.org/1999/xlink">
  <defs>
    <symbol id="model" viewBox="0 0 100 100">
      <rect style="fill: none; stroke: rgb(0, 0, 0); stroke-linejoin: round; stroke-width: 3px;" x="4" y="4" width="92" height="92" rx="10" ry="10"/>
      <use width="100" height="100" xlink:href="#separator"/>
    </symbol>
    <symbol id="separator" viewBox="0 0 100 100">
      <line style="stroke: black; stroke-width: 3px; stroke-linecap: round;" x1="10" y1="33" x2="90" y2="33"/>
      <line style="stroke: black; stroke-linecap: round;" x1="10" y1="75" x2="90" y2="75"/>
    </symbol>
    <symbol id="model_best" viewBox="0 0 100 100">
      <rect style="fill: none; stroke: rgb(0, 0, 0); stroke-linejoin: round; stroke-width: 8px;" x="4" y="4" width="92" height="92" rx="10" ry="10"/>
      <use width="100" height="100" xlink:href="#separator"/>
    </symbol>
  </defs>
  <g>
    <line style="stroke: black; stroke-width: 2px; stroke-linecap: round;" x1="5" y1="50" x2="695" y2="50"/>
    <line style="stroke: black; stroke-width: 2px; stroke-linecap: round;" x1="5" y1="162" x2="695" y2="162"/>
    <line style="stroke: black; stroke-width: 2px; stroke-linecap: round;" x1="5" y1="274" x2="695" y2="274"/>
    <line style="stroke: black; stroke-width: 2px; stroke-linecap: round;" x1="5" y1="386" x2="695" y2="386"/>
    <text x="47.003" y="34.025" style="font-size: 24px;">Paso</text>
    <text x="354.145" y="34.019" style="font-size: 24px;">Modelos</text>
    <text x="63.033" y="114.293" style="font-size: 24px;">1ยบ</text>
    <text x="63.035" y="226.294" style="font-size: 24px;">2ยบ</text>
    <text x="63.033" y="338.297" style="font-size: 24px;">3ยบ</text>
    <text x="63.363" y="450.293" style="font-size: 24px;">4ยบ</text>
  </g>
  <g transform="matrix(1, 0, 0, 1, 146, 56)">
    <g>
      <use width="100" height="100" xlink:href="#model"/>
      <text x="34.059" y="29" style="font-size: 14px; white-space: pre;">DCM</text>
      <text x="15.018" y="46" style="font-size: 14px; white-space: pre;">HCM MINF</text>
      <text x="22.732" y="58" style="font-size: 14px; white-space: pre;">NOR RV</text>
      <text x="30.158" y="90" style="font-size: 14px; white-space: pre;">83.9%</text>
    </g>
    <g transform="matrix(1, 0, 0, 1, 102, 0)">
      <use width="100" height="100" xlink:href="#model"/>
      <text x="34.067" y="29" style="font-size: 14px; white-space: pre;">HCM</text>
      <text x="15.018" y="46" style="font-size: 14px; white-space: pre;">DCM MINF</text>
      <text x="22.732" y="58" style="font-size: 14px; white-space: pre;">NOR RV</text>
      <text x="30.158" y="90" style="font-size: 14px; white-space: pre;">60.7%</text>
    </g>
    <g transform="matrix(1, 0, 0, 1, 204, 0)">
      <use width="100" height="100" xlink:href="#model"/>
      <text x="32.903" y="29" style="font-size: 14px; white-space: pre;">MINF</text>
      <text x="16.182" y="46" style="font-size: 14px; white-space: pre;">DCM HCM</text>
      <text x="22.732" y="58" style="font-size: 14px; white-space: pre;">NOR RV</text>
      <text x="30.158" y="90" style="font-size: 14px; white-space: pre;">71.2%</text>
    </g>
    <g transform="matrix(1, 0, 0, 1, 306, 0)">
      <use width="100" height="100" xlink:href="#model"/>
      <text x="34.45" y="29" style="font-size: 14px; white-space: pre;">NOR</text>
      <text x="16.182" y="46" style="font-size: 14px; white-space: pre;">DCM HCM</text>
      <text x="21.185" y="58" style="font-size: 14px; white-space: pre;">MINF RV</text>
      <text x="30.158" y="90" style="font-size: 14px; white-space: pre;">69.6%</text>
    </g>
    <g transform="matrix(1, 0, 0, 1, 408, 0)">
      <use width="100" height="100" xlink:href="#model_best"/>
      <text x="40.231" y="29" style="font-size: 14px; white-space: pre;">RV</text>
      <text x="16.182" y="46" style="font-size: 14px; white-space: pre;">DCM HCM</text>
      <text x="15.404" y="58" style="font-size: 14px; white-space: pre;">MINF NOR</text>
      <text x="30.158" y="90" style="font-size: 14px; white-space: pre;">92.2%</text>
    </g>
  </g>
  <g transform="matrix(1, 0, 0, 1, 146, 168)">
    <g>
      <use width="100" height="100" xlink:href="#model_best"/>
      <text x="34.067" y="29" style="font-size: 14px; white-space: pre;">DCM</text>
      <text x="15.018" y="46" style="font-size: 14px; white-space: pre;">HCM MINF</text>
      <text x="34.451" y="58" style="font-size: 14px; white-space: pre;">NOR</text>
      <text x="30.158" y="90" style="font-size: 14px; white-space: pre;">83.5%</text>
    </g>
    <g transform="matrix(1, 0, 0, 1, 102, 0)">
      <use width="100" height="100" xlink:href="#model"/>
      <text x="34.067" y="29" style="font-size: 14px; white-space: pre;">HCM</text>
      <text x="15.018" y="46" style="font-size: 14px; white-space: pre;">DCM MINF</text>
      <text x="34.451" y="58" style="font-size: 14px; white-space: pre;">NOR</text>
      <text x="30.158" y="90" style="font-size: 14px; white-space: pre;">53.3%</text>
    </g>
    <g transform="matrix(1, 0, 0, 1, 204, 0)">
      <use width="100" height="100" xlink:href="#model"/>
      <text x="32.903" y="29" style="font-size: 14px; white-space: pre;">MINF</text>
      <text x="16.182" y="46" style="font-size: 14px; white-space: pre;">DCM HCM</text>
      <text x="34.451" y="58" style="font-size: 14px; white-space: pre;">NOR</text>
      <text x="30.158" y="90" style="font-size: 14px; white-space: pre;">71.9%</text>
    </g>
    <g transform="matrix(1, 0, 0, 1, 306, 0)">
      <use width="100" height="100" xlink:href="#model"/>
      <text x="34.45" y="29" style="font-size: 14px; white-space: pre;">NOR</text>
      <text x="16.182" y="46" style="font-size: 14px; white-space: pre;">DCM HCM</text>
      <text x="32.904" y="58" style="font-size: 14px; white-space: pre;">MINF</text>
      <text x="30.158" y="90" style="font-size: 14px; white-space: pre;">66.8%</text>
    </g>
  </g>
  <g transform="matrix(1, 0, 0, 1, 146, 280)">
    <g>
      <use width="100" height="100" xlink:href="#model"/>
      <text x="34.067" y="29" style="font-size: 14px; white-space: pre;">HCM</text>
      <text x="15.401" y="46" style="font-size: 14px; white-space: pre;">MINF NOR</text>
      <text x="30.354" y="90" style="font-size: 14px; white-space: pre;">49.2%</text>
    </g>
    <g transform="matrix(1, 0, 0, 1, 102, 0)">
      <use width="100" height="100" xlink:href="#model_best"/>
      <text x="32.903" y="29" style="font-size: 14px; white-space: pre;">MINF</text>
      <text x="16.572" y="46" style="font-size: 14px; white-space: pre;">HCM NOR</text>
      <text x="30.158" y="90" style="font-size: 14px; white-space: pre;">71.0%</text>
    </g>
    <g transform="matrix(1, 0, 0, 1, 204, 0)">
      <use width="100" height="100" xlink:href="#model"/>
      <text x="34.45" y="29" style="font-size: 14px; white-space: pre;">NOR</text>
      <text x="15.018" y="46" style="font-size: 14px; white-space: pre;">HCM MINF</text>
      <text x="30.158" y="90" style="font-size: 14px; white-space: pre;">57.2%</text>
    </g>
  </g>
  <g transform="matrix(1, 0, 0, 1, 146, 392)">
    <g>
      <use width="100" height="100" xlink:href="#model_best"/>
      <text x="34.067" y="29" style="font-size: 14px; white-space: pre;">HCM</text>
      <text x="34.447" y="46" style="font-size: 14px; white-space: pre;">NOR</text>
      <text x="30.158" y="90" style="font-size: 14px; white-space: pre;">54.6%</text>
    </g>
  </g>
</svg>