<?xml version="1.0" encoding="utf-8"?>
<svg viewBox="0 0 500 500" xmlns="http://www.w3.org/2000/svg" xmlns:xlink="http://www.w3.org/1999/xlink">
  <defs>
    <symbol id="node" viewBox="0 0 200 200">
      <circle style="fill: none; stroke: rgb(0, 0, 0); stroke-width: 3px;" cx="100" cy="100" r="40"/>
      <line style="stroke: black; stroke-linecap: round; stroke-width: 3px;" x1="150" y1="100" x2="200" y2="100" transform="matrix(-0.707107, 0.707107, -0.707107, -0.707107, 241.421356, 100.000024)"/>
      <line style="stroke: black; stroke-linecap: round; stroke-width: 3px;" x1="150" y1="100" x2="200" y2="100" transform="matrix(0.707107, 0.707107, -0.707107, 0.707107, 100, -41.421356)"/>
      <use width="100" height="100" transform="matrix(0.3, 0, 0, 0.3, 39.579056, 113.886932)" xlink:href="#ok"/>
      <use width="100" height="100" transform="matrix(0.1, 0, 0, 0.1, 140, 123.886932)" xlink:href="#nok"/>
    </symbol>
    <symbol id="ok" viewBox="0 0 100 100">
      <path style="stroke: rgb(0, 0, 0);" d="M 46.563 67.564 C 41.141 67.663 34.07 48.769 37.546 52.95 C 41.022 57.131 41.62 59.22 45.764 59.243 C 52.299 59.279 60.811 34.852 63.159 32.509 C 65.096 30.577 53.703 67.434 46.563 67.564 Z"/>
    </symbol>
    <symbol id="nok" viewBox="0 0 100 100">
      <rect style="" transform="matrix(0.707107, 0.707107, -0.707107, 0.707107, 33.941135, -22.627409)" y="32" width="125" height="16" rx="8" ry="8"/>
      <rect style="" transform="matrix(0.707107, -0.707107, 0.707107, 0.707107, -22.627415, 65.760948)" y="32" width="125" height="16" rx="8" ry="8"/>
    </symbol>
    <symbol id="node_last" viewBox="0 0 200 200">
      <circle style="fill: none; stroke: rgb(0, 0, 0);" cx="100" cy="100" r="40"/>
      <line style="stroke: black; stroke-linecap: round;" x1="150" y1="100" x2="200" y2="100" transform="matrix(-0.707107, 0.707107, -0.707107, -0.707107, 241.421356, 100.000024)"/>
      <line style="stroke: black; stroke-linecap: round;" x1="150" y1="100" x2="200" y2="100" transform="matrix(0.707107, 0.707107, -0.707107, 0.707107, 100, -41.421356)"/>
    </symbol>
  </defs>
  <g>
    <use width="200" height="200" xlink:href="#node"/>
    <use width="200" height="200" transform="matrix(1, 0, 0, 1, 106, 106)" xlink:href="#node"/>
    <use width="200" height="200" transform="matrix(1, 0, 0, 1, 212, 212)" xlink:href="#node"/>
    <use width="200" height="200" transform="matrix(1, 0, 0, 1, 318, 318)" xlink:href="#node_last"/>
  </g>
  <g>
    <g>
      <text x="86.412" y="104.802" style="font-size: 14px; white-space: pre;">RV?</text>
      <text x="186.078" y="210.789" style="font-size: 14px; white-space: pre;">DCM?</text>
      <text x="290.907" y="316.789" style="font-size: 14px; white-space: pre;">MINF?</text>
      <text x="398.07" y="410.789" style="font-size: 14px; white-space: pre;">HCM?</text>
      <text x="398.453" y="434.796" style="font-size: 14px; white-space: pre;">NOR?</text>
    </g>
    <g>
      <text x="-5.996" y="198.791" style="font-size: 14px; white-space: pre;">RV</text>
      <text x="94.055" y="304.793" style="font-size: 14px; white-space: pre;">DCM</text>
      <text x="198.89" y="410.79" style="font-size: 14px; white-space: pre;">MINF</text>
      <text x="306.05" y="516.791" style="font-size: 14px; white-space: pre;">HCM</text>
      <text x="487.033" y="516.796" style="font-size: 14px; white-space: pre;">NOR</text>
    </g>
  </g>
</svg>