<svg viewBox="0 0 500 500" xmlns="http://www.w3.org/2000/svg" xmlns:xlink="http://www.w3.org/1999/xlink" xmlns:bx="https://boxy-svg.com">
  <defs>
    <symbol id="big_grid" viewBox="0 0 100 100" bx:pinned="true">
      <line style="stroke: rgb(209, 209, 209); stroke-linecap: square;" x1="1" y1="25.5" x2="99" y2="25.5"></line>
      <line style="stroke: rgb(209, 209, 209); stroke-linecap: square;" x1="1" y1="74.5" x2="99" y2="74.5"></line>
      <line style="stroke: rgb(209, 209, 209); stroke-linecap: square;" x1="25.5" y1="1" x2="25.5" y2="99"></line>
      <line style="stroke: rgb(209, 209, 209); stroke-linecap: square;" x1="74.5" y1="1" x2="74.5" y2="99"></line>
      <line style="stroke: rgb(0, 0, 0); stroke-width: 2px; stroke-linecap: round;" x1="1" y1="1" x2="99" y2="1"></line>
      <line style="stroke: rgb(0, 0, 0); stroke-width: 2px; stroke-linecap: round;" x1="1" y1="50" x2="99" y2="50"></line>
      <line style="stroke: rgb(0, 0, 0); stroke-width: 2px; stroke-linecap: round;" x1="1" y1="99" x2="99" y2="99"></line>
      <line style="stroke: rgb(0, 0, 0); stroke-width: 2px; stroke-linecap: round;" x1="1" y1="1" x2="1" y2="99"></line>
      <line style="stroke: rgb(0, 0, 0); stroke-width: 2px; stroke-linecap: round;" x1="50" y1="1" x2="50" y2="99"></line>
      <line style="stroke: rgb(0, 0, 0); stroke-width: 2px; stroke-linecap: round;" x1="99" y1="1" x2="99" y2="99"></line>
      <g transform="matrix(1, 0, 0, 1, -3.305309, -2.763665)">
        <text x="12.662" y="20.875" style="font-size: 14px; white-space: pre;">1</text>
        <text x="37.166" y="20.868" style="font-size: 14px; white-space: pre;">2</text>
        <text x="61.662" y="20.862" style="font-size: 14px; white-space: pre;">3</text>
        <text x="86.164" y="20.866" style="font-size: 14px; white-space: pre;">4</text>
        <text x="12.668" y="45.374" style="font-size: 14px; white-space: pre;">5</text>
        <text x="37.165" y="45.369" style="font-size: 14px; white-space: pre;">6</text>
        <text x="61.669" y="45.367" style="font-size: 14px; white-space: pre;">7</text>
        <text x="86.17" y="45.372" style="font-size: 14px; white-space: pre;">8</text>
        <text x="12.664" y="69.861" style="font-size: 14px; white-space: pre;">9</text>
        <text x="33.27" y="69.875" style="font-size: 14px; white-space: pre;">10</text>
        <text x="58.288" y="69.87" style="font-size: 14px; white-space: pre;">11</text>
        <text x="82.268" y="69.866" style="font-size: 14px; white-space: pre;">12</text>
        <text x="8.772" y="94.374" style="font-size: 14px; white-space: pre;">13</text>
        <text x="33.271" y="94.361" style="font-size: 14px; white-space: pre;">14</text>
        <text x="57.773" y="94.372" style="font-size: 14px; white-space: pre;">15</text>
        <text x="82.271" y="94.373" style="font-size: 14px; white-space: pre;">16</text>
      </g>
    </symbol>
  </defs>
  <use width="100" height="100" xlink:href="#big_grid"></use>
</svg>